<?xml version="1.0" ?><!DOCTYPE svg  PUBLIC '-//W3C//DTD SVG 1.1//EN'  'http://www.w3.org/Graphics/SVG/1.1/DTD/svg11.dtd'><svg height="512px" style="enable-background:new 0 0 512 512;" version="1.1" viewBox="0 0 512 512" width="512px" xml:space="preserve" xmlns="http://www.w3.org/2000/svg" xmlns:xlink="http://www.w3.org/1999/xlink"><g id="_x37_2-powerpoint"><g><g><path d="M479.689,91.527H270.912c-8.23,0-14.91,6.697-14.91,14.952V405.54     c0,8.255,6.68,14.953,14.91,14.953h208.777c8.234,0,14.914-6.698,14.914-14.953V106.479     C494.604,98.224,487.924,91.527,479.689,91.527L479.689,91.527z M479.689,91.527" style="fill:#F1F5F7;"/><path d="M420.039,360.683H270.912c-8.23,0-14.91-6.698-14.91-14.953s6.68-14.954,14.91-14.954h149.127     c8.229,0,14.91,6.699,14.91,14.954S428.268,360.683,420.039,360.683L420.039,360.683z M420.039,360.683" style="fill:#F97E00;"/><path d="M345.475,151.339c-41.188,0-74.563,33.464-74.563,74.762c0,41.306,33.375,74.766,74.563,74.766     c41.189,0,74.564-33.46,74.564-74.766h-74.564V151.339z M345.475,151.339" style="fill:#F97E00;"/><path d="M375.299,121.431v74.767h74.563C449.861,154.896,416.492,121.431,375.299,121.431L375.299,121.431     z M375.299,121.431" style="fill:#F97E00;"/><path d="M280.428,35.153c-3.404-2.841-7.967-4.069-12.26-3.168L29.566,76.84     c-7.068,1.322-12.169,7.481-12.169,14.687v328.966c0,7.177,5.101,13.364,12.169,14.688l238.602,44.856     c0.893,0.177,1.818,0.271,2.744,0.271c3.459,0,6.828-1.199,9.516-3.445c3.432-2.836,5.393-7.083,5.393-11.512V46.671     C285.82,42.213,283.859,37.995,280.428,35.153L280.428,35.153z M280.428,35.153" style="fill:#F56F00;"/><path d="M121.789,360.683c-8.232,0-14.916-6.698-14.916-14.953V196.197     c0-8.255,6.684-14.953,14.916-14.953h44.737c32.896,0,59.648,26.826,59.648,59.813c0,32.985-26.752,59.81-59.648,59.81h-29.827     v44.863C136.699,353.984,130.014,360.683,121.789,360.683L121.789,360.683z M136.699,270.963h29.827     c16.435,0,29.826-13.431,29.826-29.906c0-16.479-13.391-29.903-29.826-29.903h-29.827V270.963z M136.699,270.963" style="fill:#FCFCFC;"/></g></g></g><g id="Layer_1"/></svg>