<?xml version="1.0" ?><svg data-name="Слой 1" id="Слой_1" viewBox="0 0 128 128" xmlns="http://www.w3.org/2000/svg"><title/><path d="M126,20H2a2,2,0,0,0-2,2v84a2,2,0,0,0,2,2H126a2,2,0,0,0,2-2V22A2,2,0,0,0,126,20Zm-2,71.69L100.27,76H124ZM124,52H100.59L124,36.33Zm0-20.48L93.39,52H76V48.87L113.61,24H124ZM87.26,36.63,76,44.08V24h30.36ZM52,24V44.08L40.74,36.63,21.64,24ZM4,24H14.39L52,48.87V52H35L4,31.51ZM4,76H27.73L4,91.69ZM4,36.31,27.73,52H4ZM4,104V96.49L35,76H52v3.13L14.39,104Zm48,0H21.64L52,83.92Zm4,0V74a2,2,0,0,0-2-2H4V56H54a2,2,0,0,0,2-2V24H72V54a2,2,0,0,0,2,2h50V72H74a2,2,0,0,0-2,2v30ZM76,83.92,106.36,104H76ZM124,104H113.61L76,79.13V76H93l31,20.49Z"/></svg>